# xmcd
#
# Track frame offsets: 
#        150
#        10150
#        21675
#        31765
#        42722
#        52595
#        62445
#        74367
#        85312
#        96565
#        105802
#        115880
#        127112
#        138000
#        147697
#        160535
#        170747
#        182225
#        193492
#        206787
#        218065
#        228545
#        238585
#        249757
#        260702
#        270530
#        282122
#        292790
#        304717
#        314585
#        323920
#        334692
#
# Disc length: 4603 seconds
#
# Revision: 0
# Processed by: cddbd v1.5.1PL0 Copyright (c) Steve Scherf et al.
# Submitted via: ExactAudioCopy v0.95a4
#
DISCID=de11f920
DTITLE=Hank Locklin - Please Help Me I'm Falling - Disc 1
DYEAR=1900
DGENRE=Country
TTITLE0=Your Heart Is An Island (1955)
TTITLE1=Who Am I To Cast The First Stone (1955)
TTITLE2=You're Out Of Step (With The Beat Of My Heart) (1955)
TTITLE3=These Ruins Belong To You (1955)
TTITLE4=A Good Woman's Love (1956)
TTITLE5=I'm A Fool (1956)
TTITLE6=Love Or Spite (1955)
TTITLE7=Why Baby Why (1955)
TTITLE8=Seven Or Eleven (1956)
TTITLE9=You Can't Never Tell (1956)
TTITLE10=Time Nor Tide (Double Vocal) (1963)
TTITLE11=I Don't Want It (Double Vocal) (1955)
TTITLE12=She's Better Than Most (Double Vocal) (1956)
TTITLE13=How Much (1956)
TTITLE14=(I'm So Tired Of) Going Home All By Myself (1957)
TTITLE15=The Rich And The Poor (1957)
TTITLE16=By The Sweat Of My Brow (1957)
TTITLE17=Fourteen Karat Gold (1957)
TTITLE18=Livin' Alone (1957)
TTITLE19=Send Me The Pillow You Dream On (1957)
TTITLE20=Why Don't You Haul Off And Love Me (1957)
TTITLE21=Time Nor Tide (one vocal) (1995)
TTITLE22=I Don't Want It (one vocal) (1995)
TTITLE23=She's Better Than Most (one vocal) (1995)
TTITLE24=Geisha Girl (1957)
TTITLE25=Fraulein (1957)
TTITLE26=Blue Grass Skirt (1958)
TTITLE27=Filipino Baby (1958)
TTITLE28=Foreign Love (1958)
TTITLE29=Lili Marlene (1958)
TTITLE30=Mexicali Rose (1958)
TTITLE31=My Wild Irish Rose (1958)
EXTD=
EXTT0=
EXTT1=
EXTT2=
EXTT3=
EXTT4=
EXTT5=
EXTT6=
EXTT7=
EXTT8=
EXTT9=
EXTT10=
EXTT11=
EXTT12=
EXTT13=
EXTT14=
EXTT15=
EXTT16=
EXTT17=
EXTT18=
EXTT19=
EXTT20=
EXTT21=
EXTT22=
EXTT23=
EXTT24=
EXTT25=
EXTT26=
EXTT27=
EXTT28=
EXTT29=
EXTT30=
EXTT31=
PLAYORDER=
